<svg xmlns="http://www.w3.org/2000/svg" width="166" height="192" viewBox="0 0 166 192" fill="none">
    <path d="M83 182.387C128.455 182.387 165.304 145.538 165.304 100.083C165.304 54.6278 128.455 17.7791 83 17.7791C37.5448 17.7791 0.696045 54.6278 0.696045 100.083C0.696045 145.538 37.5448 182.387 83 182.387Z" fill="url(#paint0_linear_735_11128)"/>
    <g filter="url(#filter0_d_735_11128)">
        <path d="M130.187 64.0215H35.812C32.7817 64.0215 30.3251 66.4543 30.3251 69.4553V183.566C30.3251 186.567 32.7817 189 35.812 189H130.187C133.218 189 135.674 186.567 135.674 183.566V69.4553C135.674 66.4543 133.218 64.0215 130.187 64.0215Z" fill="white"/>
    </g>
    <path d="M72.0252 81.4276H43.4932C41.675 81.4276 40.201 82.9016 40.201 84.7198C40.201 86.538 41.675 88.0119 43.4932 88.0119H72.0252C73.8435 88.0119 75.3174 86.538 75.3174 84.7198C75.3174 82.9016 73.8435 81.4276 72.0252 81.4276Z" fill="#B4DAFF"/>
    <path d="M91.7782 95.6935H43.4932C41.675 95.6935 40.201 97.1674 40.201 98.9856C40.201 100.804 41.675 102.278 43.4932 102.278H91.7782C93.5964 102.278 95.0703 100.804 95.0703 98.9856C95.0703 97.1674 93.5964 95.6935 91.7782 95.6935Z" fill="#DFEAFB"/>
    <path d="M72.0252 111.057H43.4932C41.675 111.057 40.201 112.531 40.201 114.349C40.201 116.167 41.675 117.641 43.4932 117.641H72.0252C73.8435 117.641 75.3174 116.167 75.3174 114.349C75.3174 112.531 73.8435 111.057 72.0252 111.057Z" fill="#B4DAFF"/>
    <path d="M91.7782 125.323H43.4932C41.675 125.323 40.201 126.797 40.201 128.615C40.201 130.433 41.675 131.907 43.4932 131.907H91.7782C93.5964 131.907 95.0703 130.433 95.0703 128.615C95.0703 126.797 93.5964 125.323 91.7782 125.323Z" fill="#DFEAFB"/>
    <path d="M72.0252 140.687H43.4932C41.675 140.687 40.201 142.161 40.201 143.979C40.201 145.797 41.675 147.271 43.4932 147.271H72.0252C73.8435 147.271 75.3174 145.797 75.3174 143.979C75.3174 142.161 73.8435 140.687 72.0252 140.687Z" fill="#B4DAFF"/>
    <path d="M91.7782 154.953H43.4932C41.675 154.953 40.201 156.427 40.201 158.245C40.201 160.063 41.675 161.537 43.4932 161.537H91.7782C93.5964 161.537 95.0703 160.063 95.0703 158.245C95.0703 156.427 93.5964 154.953 91.7782 154.953Z" fill="#DFEAFB"/>
    <g filter="url(#filter1_d_735_11128)">
        <path d="M130.187 9H35.812C32.7817 9 30.3251 11.4566 30.3251 14.4869V47.4085C30.3251 50.4389 32.7817 52.8954 35.812 52.8954H130.187C133.218 52.8954 135.674 50.4389 135.674 47.4085V14.4869C135.674 11.4566 133.218 9 130.187 9Z" fill="#1485FD"/>
    </g>
    <path d="M72.0254 21.0712H43.4934C41.6752 21.0712 40.2012 22.5451 40.2012 24.3633C40.2012 26.1815 41.6752 27.6555 43.4934 27.6555H72.0254C73.8436 27.6555 75.3176 26.1815 75.3176 24.3633C75.3176 22.5451 73.8436 21.0712 72.0254 21.0712Z" fill="#B4DAFF"/>
    <path d="M91.7783 35.337H43.4934C41.6752 35.337 40.2012 36.811 40.2012 38.6292C40.2012 40.4474 41.6752 41.9214 43.4934 41.9214H91.7783C93.5965 41.9214 95.0705 40.4474 95.0705 38.6292C95.0705 36.811 93.5965 35.337 91.7783 35.337Z" fill="white"/>
    <defs>
        <filter id="filter0_d_735_11128" x="24.3251" y="55.0215" width="117.349" height="136.979" filterUnits="userSpaceOnUse" color-interpolation-filters="sRGB">
            <feFlood flood-opacity="0" result="BackgroundImageFix"/>
            <feColorMatrix in="SourceAlpha" type="matrix" values="0 0 0 0 0 0 0 0 0 0 0 0 0 0 0 0 0 0 127 0" result="hardAlpha"/>
            <feOffset dy="-3"/>
            <feGaussianBlur stdDeviation="3"/>
            <feColorMatrix type="matrix" values="0 0 0 0 0.788235 0 0 0 0 0.803922 0 0 0 0 0.85098 0 0 0 0.349 0"/>
            <feBlend mode="normal" in2="BackgroundImageFix" result="effect1_dropShadow_735_11128"/>
            <feBlend mode="normal" in="SourceGraphic" in2="effect1_dropShadow_735_11128" result="shape"/>
        </filter>
        <filter id="filter1_d_735_11128" x="24.3251" y="0" width="117.349" height="55.8954" filterUnits="userSpaceOnUse" color-interpolation-filters="sRGB">
            <feFlood flood-opacity="0" result="BackgroundImageFix"/>
            <feColorMatrix in="SourceAlpha" type="matrix" values="0 0 0 0 0 0 0 0 0 0 0 0 0 0 0 0 0 0 127 0" result="hardAlpha"/>
            <feOffset dy="-3"/>
            <feGaussianBlur stdDeviation="3"/>
            <feColorMatrix type="matrix" values="0 0 0 0 0.788235 0 0 0 0 0.803922 0 0 0 0 0.85098 0 0 0 0.349 0"/>
            <feBlend mode="normal" in2="BackgroundImageFix" result="effect1_dropShadow_735_11128"/>
            <feBlend mode="normal" in="SourceGraphic" in2="effect1_dropShadow_735_11128" result="shape"/>
        </filter>
        <linearGradient id="paint0_linear_735_11128" x1="83" y1="17.7791" x2="83" y2="182.387" gradientUnits="userSpaceOnUse">
            <stop stop-color="#E3ECFA"/>
            <stop offset="1" stop-color="#DAE7FF"/>
        </linearGradient>
    </defs>
</svg>