<svg width="130" height="43" viewBox="0 0 130 43" fill="none" xmlns="http://www.w3.org/2000/svg">
  <path d="M35.8105 0.120117C39.2229 0.120117 41.9891 2.9055 41.9893 6.3418V35.8975C41.9893 39.3339 39.223 42.1201 35.8105 42.1201H6.46191C3.04948 42.1201 0.282227 39.3339 0.282227 35.8975V6.3418C0.282386 2.9055 3.04958 0.120117 6.46191 0.120117H35.8105ZM77.998 17.1318H82.1396V19.7812H77.998V25.5859C77.998 26.4876 78.1942 27.1643 78.5859 27.6152C78.9777 28.0661 79.6124 28.292 80.4893 28.292C80.7504 28.292 81.021 28.2634 81.3008 28.207C81.5805 28.1319 81.8696 28.0566 82.168 27.9814L82.7002 30.5742C82.3644 30.7621 81.9345 30.9127 81.4121 31.0254C80.9087 31.138 80.4145 31.1943 79.9297 31.1943C78.1014 31.1943 76.7392 30.734 75.8438 29.8135C74.9483 28.8929 74.5 27.5492 74.5 25.7832V19.7812H71.8701V17.1318H74.5V13.0176H77.998V17.1318ZM87.8145 17.1318V25.5586C87.8145 26.1969 87.8987 26.7321 88.0664 27.1641C88.253 27.5961 88.5235 27.9164 88.8779 28.123C89.251 28.3297 89.7177 28.4326 90.2773 28.4326C90.9116 28.4326 91.4623 28.2916 91.9287 28.0098C92.4136 27.7092 92.7867 27.2955 93.0479 26.7695C93.3276 26.2248 93.4678 25.5956 93.4678 24.8818V17.1318H96.9658V30.9121H93.5518V28.8604C93.189 29.4845 92.7223 29.9899 92.1523 30.377C91.3688 30.9218 90.4356 31.1943 89.3535 31.1943C88.2157 31.1943 87.2735 30.9875 86.5273 30.5742C85.7813 30.1421 85.2217 29.5035 84.8486 28.6582C84.4942 27.8128 84.3164 26.7607 84.3164 25.502V17.1318H87.8145ZM113.759 30.9121H110.345V28.6523C110.027 29.3222 109.541 29.878 108.89 30.3203C108.031 30.9027 107.024 31.1943 105.867 31.1943C104.673 31.1943 103.619 30.9027 102.705 30.3203C101.81 29.7379 101.11 28.9116 100.606 27.8408C100.103 26.7512 99.8506 25.4732 99.8506 24.0078C99.8506 22.5239 100.103 21.256 100.606 20.2041C101.11 19.1332 101.81 18.306 102.705 17.7236C103.619 17.1413 104.673 16.8506 105.867 16.8506C107.005 16.8506 107.994 17.1327 108.834 17.6963C109.457 18.1057 109.933 18.6094 110.261 19.207V11.0449H113.759V30.9121ZM123.486 16.8506C124.792 16.8506 125.912 17.1327 126.845 17.6963C127.777 18.2598 128.495 19.0579 128.999 20.0908C129.521 21.1241 129.782 22.3554 129.782 23.7832V24.8252H119.978C120.045 25.4651 120.188 26.0197 120.408 26.4883C120.725 27.1645 121.201 27.6716 121.835 28.0098C122.469 28.3479 123.253 28.5176 124.186 28.5176C124.95 28.5176 125.716 28.4042 126.48 28.1787C127.245 27.9345 127.945 27.559 128.579 27.0518L129.559 29.4189C128.906 29.9638 128.084 30.3955 127.096 30.7148C126.107 31.0342 125.119 31.1943 124.13 31.1943C122.581 31.1943 121.247 30.9027 120.128 30.3203C119.009 29.7379 118.141 28.9116 117.525 27.8408C116.928 26.77 116.63 25.5015 116.63 24.0361C116.63 22.6085 116.92 21.3589 117.498 20.2881C118.095 19.2174 118.907 18.3814 119.933 17.7803C120.977 17.1604 122.162 16.8506 123.486 16.8506ZM70.5605 11.0449V13.9199H60.8779V19.3867H69.9443V22.2607H60.8779V28.0381H70.5605V30.9121H57.4365V11.0449H70.5605ZM15.2852 27.7334V30.2393H32.2617V27.7334H15.2852ZM10.3232 30.2383H12.8047V15.0703H32.2617V12.5645H10.3232V30.2383ZM106.847 19.5273C105.802 19.5274 104.962 19.9038 104.328 20.6553C103.694 21.3879 103.377 22.5053 103.377 24.0078C103.377 25.4918 103.694 26.6194 104.328 27.3896C104.962 28.1411 105.802 28.5175 106.847 28.5176C107.891 28.5176 108.731 28.1411 109.365 27.3896C109.999 26.6194 110.316 25.4919 110.316 24.0078C110.316 22.5052 109.999 21.3879 109.365 20.6553C108.731 19.9038 107.891 19.5273 106.847 19.5273ZM15.2852 25.2266H29.7803V22.7207H15.2852V25.2266ZM123.626 19.2461C122.842 19.2461 122.171 19.4338 121.611 19.8096C121.07 20.1665 120.65 20.6831 120.352 21.3594C120.171 21.7836 120.049 22.2631 119.985 22.7969H126.861C126.805 21.7245 126.528 20.8878 126.032 20.2881C125.473 19.5933 124.67 19.2461 123.626 19.2461ZM15.416 20.082H27.4297V17.5762H15.416V20.082Z" fill="#338AF1"/>
</svg>
